<?xml version="1.0" encoding="utf-8"?>
<!-- Generator: Adobe Illustrator 27.5.0, SVG Export Plug-In . SVG Version: 6.00 Build 0)  -->
<svg version="1.1" xmlns="http://www.w3.org/2000/svg" xmlns:xlink="http://www.w3.org/1999/xlink" x="0px" y="0px"
	 viewBox="0 0 750 500" style="enable-background:new 0 0 750 500;" xml:space="preserve">
<g id="BACKGROUND">
	<linearGradient id="SVGID_1_" gradientUnits="userSpaceOnUse" x1="396.8542" y1="-8.5182" x2="359.0078" y2="439.1743">
		<stop  offset="0.2335" style="stop-color:#FFFFFF"/>
		<stop  offset="1" style="stop-color:#D4D4D4"/>
	</linearGradient>
	<rect style="fill:url(#SVGID_1_);" width="750" height="500"/>
</g>
<g id="OBJECTS">
	<g>
		
			<linearGradient id="SVGID_00000084502897656037587660000014025516550722473349_" gradientUnits="userSpaceOnUse" x1="477.0675" y1="40.8337" x2="733.757" y2="40.8337" gradientTransform="matrix(0.9856 -0.169 0.169 0.9856 28.5728 218.4839)">
			<stop  offset="0" style="stop-color:#FFFFFF;stop-opacity:0"/>
			<stop  offset="1" style="stop-color:#FFFFFF"/>
		</linearGradient>
		<path style="fill:url(#SVGID_00000084502897656037587660000014025516550722473349_);" d="M747.108,67.326
			c-21.381,18.88-54.324,37.255-78.219,52.761c-47.763,30.996-102.831,49.787-149.28,82.718c-4.408,3.125-9.271,8.037-7.326,13.078
			c1.323,3.428,5.228,4.972,8.743,6.044c39.643,12.086,82.44,11.618,122.331,0.915c20.183-5.415,38.737-13.777,57.197-23.403
			c6.009-3.134,34.247-15.782,46.554-23.167C748.163,175.639,747.108,67.326,747.108,67.326z"/>
		
			<linearGradient id="SVGID_00000121999657031385842310000007407714126204160677_" gradientUnits="userSpaceOnUse" x1="570.5995" y1="115.0339" x2="43.5964" y2="122.412">
			<stop  offset="0.2335" style="stop-color:#FFFFFF"/>
			<stop  offset="1" style="stop-color:#D4D4D4"/>
		</linearGradient>
		<path style="fill:url(#SVGID_00000121999657031385842310000007407714126204160677_);" d="M750.646,0.657h-750v233.08
			c64.409-31.689,137.385-46.11,208.959-40.176c72.559,6.015,142.114,31.831,214.298,41.342
			c85.754,11.299,177.52-2.301,247.839-52.666c30.112-21.568,55.245-48.94,78.904-77.613V0.657z"/>
		<path style="fill:none;stroke:#FFFFFF;stroke-width:3;stroke-miterlimit:10;" d="M0.646,233.736
			c64.409-31.689,137.385-46.11,208.959-40.176c72.559,6.015,142.114,31.831,214.298,41.342
			c85.754,11.299,177.52-2.301,247.839-52.666c30.112-21.568,55.245-48.94,78.904-77.613"/>
		
			<linearGradient id="SVGID_00000113333488204172379180000008769780231305731506_" gradientUnits="userSpaceOnUse" x1="276.9322" y1="268.6982" x2="359.2191" y2="80.6141">
			<stop  offset="0.2335" style="stop-color:#FFFFFF"/>
			<stop  offset="1" style="stop-color:#D4D4D4"/>
		</linearGradient>
		<path style="fill:url(#SVGID_00000113333488204172379180000008769780231305731506_);" d="M750.646,0.657h-750v72.281
			c1.016-1.102,2.049-2.191,3.116-3.249c28.556-28.324,72.953-35.975,112.421-28.234s74.964,28.84,108.053,51.705
			c33.089,22.865,64.937,48.005,101.124,65.559c67.352,32.671,278.979,118.477,422.692-71.494c0.629-0.831,1.73-1.164,2.594-1.747
			V0.657z"/>
		<path style="fill:#CCABAB;stroke:#A52C01;stroke-width:4.0339;stroke-miterlimit:10;" d="M741.569,394.943"/>
		
			<linearGradient id="SVGID_00000099628103233153532830000007762172309878256062_" gradientUnits="userSpaceOnUse" x1="270.369" y1="100.6258" x2="730.6769" y2="-178.7586">
			<stop  offset="0.2335" style="stop-color:#FFFFFF"/>
			<stop  offset="1" style="stop-color:#D4D4D4"/>
		</linearGradient>
		<path style="fill:url(#SVGID_00000099628103233153532830000007762172309878256062_);" d="M750.646,0.657h-750v153.709
			c9.845-7.879,20.451-14.812,31.657-20.626c68.338-35.454,151.058-27.564,225.928-9.35c74.87,18.214,148.539,45.965,225.597,47.684
			c43.098,0.962,86.368-6.406,126.69-21.571c49.849-18.749,94.618-49.062,135.048-83.595c1.696-1.449,3.388-2.91,5.079-4.376V0.657z
			"/>
		<g>
			
				<linearGradient id="SVGID_00000093867733137850661770000013589188364465872530_" gradientUnits="userSpaceOnUse" x1="671.5462" y1="-73.3798" x2="491.8539" y2="39.8508">
				<stop  offset="0" style="stop-color:#FFFFFF;stop-opacity:0"/>
				<stop  offset="1" style="stop-color:#FFFFFF"/>
			</linearGradient>
			<path style="fill:url(#SVGID_00000093867733137850661770000013589188364465872530_);" d="M32.304,133.74
				c13.927-7.435,28.721-13.338,44.036-17.378c7.645-2.056,15.394-3.743,23.208-5.061c7.819-1.285,15.695-2.227,23.596-2.865
				c31.652-2.358,63.492,0.262,94.713,5.501c62.611,10.608,122.353,32.385,183.96,45.259c15.375,3.327,30.883,5.96,46.469,7.82
				c15.584,1.833,31.266,2.919,46.942,2.726c7.839-0.028,15.676-0.408,23.493-1.01c7.822-0.57,15.612-1.518,23.372-2.647
				c15.515-2.318,30.875-5.684,45.956-10.046c7.539-2.188,14.985-4.69,22.364-7.377c7.343-2.783,14.649-5.686,21.803-8.945
				c14.337-6.447,28.305-13.751,41.801-21.861c13.54-8.04,26.672-16.784,39.427-26.059c3.172-2.341,6.341-4.689,9.485-7.07
				c3.111-2.423,6.274-4.783,9.344-7.26c3.099-2.442,6.198-4.885,9.243-7.396c3.07-2.48,6.104-5.005,9.131-7.539
				c-23.458,21.137-48.522,40.592-75.356,57.418c-13.431,8.384-27.401,15.92-41.762,22.64c-7.168,3.392-14.499,6.43-21.877,9.349
				c-7.416,2.823-14.907,5.461-22.499,7.785c-7.6,2.291-15.255,4.423-23,6.191c-7.748,1.742-15.54,3.319-23.398,4.501
				c-7.852,1.202-15.739,2.221-23.661,2.859c-7.918,0.67-15.86,1.114-23.81,1.202c-15.905,0.303-31.8-0.808-47.568-2.608
				c-15.769-1.845-31.438-4.459-46.931-7.783c-15.497-3.314-30.865-7.129-46.15-11.186c-15.277-4.086-30.486-8.356-45.68-12.632
				c-15.191-4.283-30.384-8.509-45.662-12.357c-7.626-1.993-15.288-3.766-22.968-5.491c-7.679-1.718-15.386-3.314-23.128-4.712
				c-30.929-5.661-62.467-8.676-93.888-6.841c-7.849,0.447-15.682,1.196-23.473,2.289c-7.785,1.124-15.519,2.617-23.166,4.482
				c-3.832,0.906-7.614,2-11.398,3.09l-5.628,1.797c-1.877,0.598-3.714,1.31-5.577,1.951
				C46.653,127.155,39.384,130.243,32.304,133.74z"/>
		</g>
		
			<linearGradient id="SVGID_00000007392104011770230940000003158679773940865411_" gradientUnits="userSpaceOnUse" x1="0.6461" y1="54.9794" x2="471.978" y2="54.9794">
			<stop  offset="0.2335" style="stop-color:#FFFFFF"/>
			<stop  offset="1" style="stop-color:#D4D4D4"/>
		</linearGradient>
		<path style="fill:url(#SVGID_00000007392104011770230940000003158679773940865411_);" d="M0.646,0.657v108.646
			c10.033-5.661,20.49-10.576,31.247-14.677c43.716-16.669,91.362-20.843,138.103-18.8c71.782,3.138,146.324,20.123,213.699-4.841
			c33.042-12.243,62.337-34.402,83.11-62.864c1.786-2.447,3.503-4.939,5.173-7.463H0.646z"/>
		<g>
			
				<linearGradient id="SVGID_00000171690262654665203400000016626752165173814679_" gradientUnits="userSpaceOnUse" x1="306.3483" y1="163.9248" x2="278.656" y2="120.8479">
				<stop  offset="0" style="stop-color:#FFFFFF;stop-opacity:0"/>
				<stop  offset="1" style="stop-color:#FFFFFF"/>
			</linearGradient>
			<path style="fill:url(#SVGID_00000171690262654665203400000016626752165173814679_);" d="M0.646,109.302
				c4.523-2.693,9.14-5.236,13.842-7.621c4.712-2.365,9.514-4.556,14.386-6.587c9.771-3.989,19.763-7.466,29.943-10.323
				c20.373-5.692,41.388-8.959,62.478-10.493c21.098-1.613,42.311-1.287,63.381-0.001c21.074,1.31,42.029,3.51,62.973,5.166
				c20.931,1.752,41.889,2.981,62.791,2.358c20.879-0.562,41.738-3.188,61.755-9.036c10.001-2.928,19.747-6.691,29.124-11.26
				c9.36-4.602,18.33-10.018,26.81-16.133c17.002-12.189,31.841-27.424,43.85-44.716l-4.344,6.598
				c-1.46,2.194-3.058,4.291-4.591,6.439c-3.238,4.161-6.568,8.265-10.155,12.143c-7.131,7.79-14.886,15.051-23.296,21.501
				c-8.415,6.439-17.393,12.158-26.798,17.094c-9.425,4.901-19.334,8.879-29.47,12.069c-1.261,0.422-2.535,0.799-3.816,1.15
				l-3.835,1.089c-2.57,0.673-5.15,1.314-7.736,1.926c-5.19,1.137-10.407,2.164-15.661,2.932c-10.5,1.598-21.087,2.547-31.677,2.936
				c-21.193,0.775-42.343-0.433-63.356-2.109c-21.016-1.76-41.939-3.971-62.877-5.436c-10.468-0.753-20.935-1.275-31.411-1.432
				c-10.475-0.133-20.953,0.03-31.41,0.6c-20.901,1.187-41.765,3.893-62.109,8.971c-10.185,2.473-20.221,5.57-30.075,9.191
				c-4.914,1.843-9.765,3.863-14.548,6.039C10.017,104.511,5.292,106.827,0.646,109.302z"/>
		</g>
		
			<linearGradient id="SVGID_00000085944139598986182250000009688853057449660052_" gradientUnits="userSpaceOnUse" x1="0.6461" y1="414.1583" x2="750.6461" y2="414.1583">
			<stop  offset="0.2335" style="stop-color:#FFFFFF"/>
			<stop  offset="1" style="stop-color:#D4D4D4"/>
		</linearGradient>
		<path style="fill:url(#SVGID_00000085944139598986182250000009688853057449660052_);" d="M750.646,328.11
			c-17.072-1.272-34.668,0.228-51.355,3.571c-30.527,6.116-56.506,13.779-83.513,27.732c-27.012,13.956-52.562,30.098-81.499,41.272
			c-68.869,26.593-152.601,32.018-222.811,5.417C201.877,364.58,99.723,315.349,0.646,378.118v122.538h750V328.11z"/>
		<g>
			<path style="fill:#FFFFFF;" d="M311.469,406.102c-12.81-4.495-25.51-9.291-38.258-13.948
				c-12.714-4.746-25.431-9.473-38.226-13.958c-12.804-4.456-25.632-8.831-38.614-12.674c-12.969-3.875-26.061-7.331-39.311-9.993
				c-26.437-5.422-53.674-7.697-80.484-4.311c-13.391,1.651-26.594,4.847-39.307,9.44c-12.759,4.494-24.968,10.505-36.624,17.459
				c11.297-7.533,23.432-13.843,36.11-18.837c12.71-4.91,25.993-8.398,39.507-10.349c13.513-2.008,27.235-2.394,40.861-1.695
				c13.634,0.742,27.174,2.666,40.532,5.354c26.719,5.484,52.665,13.958,78.11,23.445c12.726,4.757,25.363,9.724,37.971,14.753
				L311.469,406.102z"/>
		</g>
		
			<linearGradient id="SVGID_00000152229421617675412120000015057558419683684995_" gradientUnits="userSpaceOnUse" x1="441.8377" y1="588.7045" x2="385.8649" y2="422.8588">
			<stop  offset="0.2335" style="stop-color:#FFFFFF"/>
			<stop  offset="1" style="stop-color:#D4D4D4"/>
		</linearGradient>
		<path style="fill:url(#SVGID_00000152229421617675412120000015057558419683684995_);" d="M750.646,284.505
			c-38.223,1.825-76.06,9.863-109.474,28.08c-78.346,42.713-125.251,136.635-211.266,160.378
			c-47.802,13.195-98.802,1.568-145.903-13.945c-47.101-15.513-93.812-35.097-143.312-38.078
			c-44.901-2.704-90.556,8.887-128.731,32.681c-4.158,2.592-7.887,5.3-11.313,8.112v38.923h750V284.505z"/>
		
			<linearGradient id="SVGID_00000161602019239389235360000004908319024162565050_" gradientUnits="userSpaceOnUse" x1="616.1423" y1="372.1628" x2="677.4046" y2="480.7639">
			<stop  offset="0.2335" style="stop-color:#FFFFFF"/>
			<stop  offset="1" style="stop-color:#D4D4D4"/>
		</linearGradient>
		<path style="fill:url(#SVGID_00000161602019239389235360000004908319024162565050_);" d="M750.646,354.273
			c-34.525,7.393-68.46,17.224-98.35,35.619c-47.207,29.052-93.496,82.995-108.266,110.765h72.841
			c11.308-16.559,26.382-41.749,36.697-51.154c32.006-29.182,62.419-42.094,97.077-43.687V354.273z"/>
		
			<linearGradient id="SVGID_00000013160243171862813400000014401911755887581620_" gradientUnits="userSpaceOnUse" x1="0.6461" y1="445.3593" x2="486.7027" y2="445.3593">
			<stop  offset="0" style="stop-color:#FFFFFF;stop-opacity:0"/>
			<stop  offset="1" style="stop-color:#FFFFFF"/>
		</linearGradient>
		<path style="fill:url(#SVGID_00000013160243171862813400000014401911755887581620_);" d="M331.108,445.81
			c-52.923-23.385-81.233-36.093-122.768-43.22c-66.131-11.347-147.088-13.831-207.693,20.55v72.56
			c38.607-19.687,80.257-33.677,123.23-39.525c28.229-3.842,56.96-4.118,85.2-0.222c20.798,2.869,41.222,7.919,61.732,12.403
			c34.935,7.637,70.714,13.588,106.596,12.382c16.939-0.569,43.653-1.465,59.55-6.621c22.769-7.385,54.167-27.766,49.231-26.462
			C431.449,462.117,371.076,463.471,331.108,445.81z"/>
	</g>
</g>
</svg>
